M48
;DRILL file {KiCad 4.0.2-stable} date 5/9/2017 3:48:34 PM
;FORMAT={-:-/ absolute / inch / decimal}
FMAT,2
INCH,TZ
T1C0.040
T2C0.043
T3C0.120
%
G90
G05
M72
T1
X5.11Y-2.975
X5.21Y-2.975
X5.31Y-2.975
X5.41Y-2.975
X5.47Y-4.875
X5.51Y-2.975
X5.57Y-4.875
X5.61Y-2.975
X5.67Y-4.875
X5.71Y-2.975
X5.77Y-4.875
X5.81Y-2.975
X5.87Y-4.875
X5.91Y-2.975
X5.97Y-4.875
X6.01Y-2.975
X6.07Y-4.875
X6.17Y-2.975
X6.17Y-4.875
X6.27Y-2.975
X6.37Y-2.975
X6.37Y-4.875
X6.47Y-2.975
X6.47Y-4.875
X6.57Y-2.975
X6.57Y-4.875
X6.67Y-2.975
X6.67Y-4.875
X6.77Y-2.975
X6.77Y-4.875
X6.87Y-2.975
X6.87Y-4.875
T2
X4.47Y-3.075
X4.47Y-3.175
X4.47Y-3.275
X4.47Y-3.375
X4.47Y-3.475
X4.47Y-3.575
X4.47Y-3.675
X4.47Y-3.775
X4.47Y-3.875
X4.47Y-3.975
X4.47Y-4.075
X4.47Y-4.175
X4.47Y-4.275
X4.47Y-4.375
X4.47Y-4.475
X4.47Y-4.575
X4.47Y-4.675
X4.47Y-4.775
X4.57Y-3.075
X4.57Y-3.175
X4.57Y-3.275
X4.57Y-3.375
X4.57Y-3.475
X4.57Y-3.575
X4.57Y-3.675
X4.57Y-3.775
X4.57Y-3.875
X4.57Y-3.975
X4.57Y-4.075
X4.57Y-4.175
X4.57Y-4.275
X4.57Y-4.375
X4.57Y-4.475
X4.57Y-4.575
X4.57Y-4.675
X4.57Y-4.775
X4.67Y-3.075
X4.67Y-3.175
X4.67Y-3.275
X4.67Y-3.375
X4.67Y-3.475
X4.67Y-3.575
X4.67Y-3.675
X4.67Y-3.775
X4.67Y-3.875
X4.67Y-3.975
X4.67Y-4.075
X4.67Y-4.175
X4.67Y-4.275
X4.67Y-4.375
X4.67Y-4.475
X4.67Y-4.575
X4.67Y-4.675
X4.67Y-4.775
X4.77Y-3.075
X4.77Y-3.175
X4.77Y-3.275
X4.77Y-3.375
X4.77Y-3.475
X4.77Y-3.575
X4.77Y-3.675
X4.77Y-3.775
X4.77Y-3.875
X4.77Y-3.975
X4.77Y-4.075
X4.77Y-4.175
X4.77Y-4.275
X4.77Y-4.375
X4.77Y-4.475
X4.77Y-4.575
X4.77Y-4.675
X4.77Y-4.775
X4.87Y-3.175
X4.87Y-3.275
X4.87Y-3.375
X4.87Y-3.475
X4.87Y-3.575
X4.87Y-3.675
X4.87Y-3.775
X4.87Y-3.875
X4.87Y-3.975
X4.87Y-4.075
X4.87Y-4.175
X4.87Y-4.275
X4.87Y-4.375
X4.87Y-4.475
X4.87Y-4.575
X4.87Y-4.675
X4.97Y-3.175
X4.97Y-3.275
X4.97Y-3.375
X4.97Y-3.475
X4.97Y-3.575
X4.97Y-3.675
X4.97Y-3.775
X4.97Y-3.875
X4.97Y-3.975
X4.97Y-4.075
X4.97Y-4.175
X4.97Y-4.275
X4.97Y-4.375
X4.97Y-4.475
X4.97Y-4.575
X4.97Y-4.675
X5.07Y-3.075
X5.07Y-3.175
X5.07Y-3.275
X5.07Y-3.375
X5.07Y-3.475
X5.07Y-3.575
X5.07Y-3.675
X5.07Y-3.775
X5.07Y-3.875
X5.07Y-3.975
X5.07Y-4.075
X5.07Y-4.175
X5.07Y-4.275
X5.07Y-4.375
X5.07Y-4.475
X5.07Y-4.575
X5.07Y-4.675
X5.07Y-4.775
X5.17Y-3.075
X5.17Y-3.175
X5.17Y-3.275
X5.17Y-3.375
X5.17Y-3.475
X5.17Y-3.575
X5.17Y-3.675
X5.17Y-3.775
X5.17Y-3.875
X5.17Y-3.975
X5.17Y-4.075
X5.17Y-4.175
X5.17Y-4.275
X5.17Y-4.375
X5.17Y-4.475
X5.17Y-4.575
X5.17Y-4.675
X5.17Y-4.775
X5.27Y-3.075
X5.27Y-3.175
X5.27Y-3.275
X5.27Y-3.375
X5.27Y-3.475
X5.27Y-3.575
X5.27Y-3.675
X5.27Y-3.775
X5.27Y-3.875
X5.27Y-3.975
X5.27Y-4.075
X5.27Y-4.175
X5.27Y-4.275
X5.27Y-4.375
X5.27Y-4.475
X5.27Y-4.575
X5.27Y-4.675
X5.27Y-4.775
X5.37Y-3.075
X5.37Y-3.175
X5.37Y-3.275
X5.37Y-3.375
X5.37Y-3.475
X5.37Y-3.575
X5.37Y-3.675
X5.37Y-3.775
X5.37Y-3.875
X5.37Y-3.975
X5.37Y-4.075
X5.37Y-4.175
X5.37Y-4.275
X5.37Y-4.375
X5.37Y-4.475
X5.37Y-4.575
X5.37Y-4.675
X5.37Y-4.775
X5.47Y-3.075
X5.47Y-3.175
X5.47Y-3.275
X5.47Y-3.375
X5.47Y-3.475
X5.47Y-3.575
X5.47Y-3.675
X5.47Y-3.775
X5.47Y-3.875
X5.47Y-3.975
X5.47Y-4.075
X5.47Y-4.175
X5.47Y-4.275
X5.47Y-4.375
X5.47Y-4.475
X5.47Y-4.575
X5.47Y-4.675
X5.47Y-4.775
X5.57Y-3.075
X5.57Y-3.175
X5.57Y-3.275
X5.57Y-3.375
X5.57Y-3.475
X5.57Y-3.575
X5.57Y-3.675
X5.57Y-3.775
X5.57Y-3.875
X5.57Y-3.975
X5.57Y-4.075
X5.57Y-4.175
X5.57Y-4.275
X5.57Y-4.375
X5.57Y-4.475
X5.57Y-4.575
X5.57Y-4.675
X5.57Y-4.775
X5.67Y-3.075
X5.67Y-3.175
X5.67Y-3.275
X5.67Y-3.375
X5.67Y-3.475
X5.67Y-3.575
X5.67Y-3.675
X5.67Y-3.775
X5.67Y-3.875
X5.67Y-3.975
X5.67Y-4.075
X5.67Y-4.175
X5.67Y-4.275
X5.67Y-4.375
X5.67Y-4.475
X5.67Y-4.575
X5.67Y-4.675
X5.67Y-4.775
X5.77Y-3.075
X5.77Y-3.175
X5.77Y-3.275
X5.77Y-3.375
X5.77Y-3.475
X5.77Y-3.575
X5.77Y-3.675
X5.77Y-3.775
X5.77Y-3.875
X5.77Y-3.975
X5.77Y-4.075
X5.77Y-4.175
X5.77Y-4.275
X5.77Y-4.375
X5.77Y-4.475
X5.77Y-4.575
X5.77Y-4.675
X5.77Y-4.775
X5.87Y-3.075
X5.87Y-3.175
X5.87Y-3.275
X5.87Y-3.375
X5.87Y-3.475
X5.87Y-3.575
X5.87Y-3.675
X5.87Y-3.775
X5.87Y-3.875
X5.87Y-3.975
X5.87Y-4.075
X5.87Y-4.175
X5.87Y-4.275
X5.87Y-4.375
X5.87Y-4.475
X5.87Y-4.575
X5.87Y-4.675
X5.87Y-4.775
X5.97Y-3.075
X5.97Y-3.175
X5.97Y-3.275
X5.97Y-3.375
X5.97Y-3.475
X5.97Y-3.575
X5.97Y-3.675
X5.97Y-3.775
X5.97Y-3.875
X5.97Y-3.975
X5.97Y-4.075
X5.97Y-4.175
X5.97Y-4.275
X5.97Y-4.375
X5.97Y-4.475
X5.97Y-4.575
X5.97Y-4.675
X5.97Y-4.775
X6.07Y-3.075
X6.07Y-3.175
X6.07Y-3.275
X6.07Y-3.375
X6.07Y-3.475
X6.07Y-3.575
X6.07Y-3.675
X6.07Y-3.775
X6.07Y-3.875
X6.07Y-3.975
X6.07Y-4.075
X6.07Y-4.175
X6.07Y-4.275
X6.07Y-4.375
X6.07Y-4.475
X6.07Y-4.575
X6.07Y-4.675
X6.07Y-4.775
X6.17Y-3.075
X6.17Y-3.175
X6.17Y-3.275
X6.17Y-3.375
X6.17Y-3.475
X6.17Y-3.575
X6.17Y-3.675
X6.17Y-3.775
X6.17Y-3.875
X6.17Y-3.975
X6.17Y-4.075
X6.17Y-4.175
X6.17Y-4.275
X6.17Y-4.375
X6.17Y-4.475
X6.17Y-4.575
X6.17Y-4.675
X6.17Y-4.775
X6.27Y-3.075
X6.27Y-3.175
X6.27Y-3.275
X6.27Y-3.375
X6.27Y-3.475
X6.27Y-3.575
X6.27Y-3.675
X6.27Y-3.775
X6.27Y-3.875
X6.27Y-3.975
X6.27Y-4.075
X6.27Y-4.175
X6.27Y-4.275
X6.27Y-4.375
X6.27Y-4.475
X6.27Y-4.575
X6.27Y-4.675
X6.27Y-4.775
X6.37Y-3.075
X6.37Y-3.175
X6.37Y-3.275
X6.37Y-3.375
X6.37Y-3.475
X6.37Y-3.575
X6.37Y-3.675
X6.37Y-3.775
X6.37Y-3.875
X6.37Y-3.975
X6.37Y-4.075
X6.37Y-4.175
X6.37Y-4.275
X6.37Y-4.375
X6.37Y-4.475
X6.37Y-4.575
X6.37Y-4.675
X6.37Y-4.775
X6.47Y-3.075
X6.47Y-3.175
X6.47Y-3.275
X6.47Y-3.375
X6.47Y-3.475
X6.47Y-3.575
X6.47Y-3.675
X6.47Y-3.775
X6.47Y-3.875
X6.47Y-3.975
X6.47Y-4.075
X6.47Y-4.175
X6.47Y-4.275
X6.47Y-4.375
X6.47Y-4.475
X6.47Y-4.575
X6.47Y-4.675
X6.47Y-4.775
X6.57Y-3.075
X6.57Y-3.175
X6.57Y-3.275
X6.57Y-3.375
X6.57Y-3.475
X6.57Y-3.575
X6.57Y-3.675
X6.57Y-3.775
X6.57Y-3.875
X6.57Y-3.975
X6.57Y-4.075
X6.57Y-4.175
X6.57Y-4.275
X6.57Y-4.375
X6.57Y-4.475
X6.57Y-4.575
X6.57Y-4.675
X6.57Y-4.775
X6.67Y-3.075
X6.67Y-3.175
X6.67Y-3.275
X6.67Y-3.375
X6.67Y-3.475
X6.67Y-3.575
X6.67Y-3.675
X6.67Y-3.775
X6.67Y-3.875
X6.67Y-3.975
X6.67Y-4.075
X6.67Y-4.175
X6.67Y-4.275
X6.67Y-4.375
X6.67Y-4.475
X6.67Y-4.575
X6.67Y-4.675
X6.67Y-4.775
X6.77Y-3.075
X6.77Y-3.175
X6.77Y-3.275
X6.77Y-3.375
X6.77Y-3.475
X6.77Y-3.575
X6.77Y-3.675
X6.77Y-3.775
X6.77Y-3.875
X6.77Y-3.975
X6.77Y-4.075
X6.77Y-4.175
X6.77Y-4.275
X6.77Y-4.375
X6.77Y-4.475
X6.77Y-4.575
X6.77Y-4.675
X6.77Y-4.775
X6.87Y-3.075
X6.87Y-3.175
X6.87Y-3.275
X6.87Y-3.375
X6.87Y-3.775
X6.87Y-3.875
X6.87Y-3.975
X6.87Y-4.075
X6.87Y-4.175
X6.87Y-4.275
X6.87Y-4.375
X6.87Y-4.475
X6.87Y-4.775
X6.97Y-3.775
X6.97Y-3.875
X6.97Y-3.975
X6.97Y-4.075
X6.97Y-4.175
X6.97Y-4.275
X6.97Y-4.375
X6.97Y-4.475
T3
X4.92Y-4.875
X4.97Y-2.975
X6.97Y-3.575
X6.97Y-4.675
T0
M30
